<?xml version="1.0" standalone="no"?>
<!DOCTYPE svg PUBLIC "-//W3C//DTD SVG 20010904//EN"
 "http://www.w3.org/TR/2001/REC-SVG-20010904/DTD/svg10.dtd">
<svg version="1.0" xmlns="http://www.w3.org/2000/svg"
 width="154.000000pt" height="154.000000pt" viewBox="0 0 154.000000 154.000000"
 preserveAspectRatio="xMidYMid meet">
<metadata>
Created by potrace 1.14, written by Peter Selinger 2001-2017
</metadata>
<g transform="translate(0.000000,154.000000) scale(0.100000,-0.100000)"
fill="#000000" stroke="none">
<path d="M1099 1275 c-52 -19 -172 -84 -184 -99 -9 -11 -23 -12 -83 -1 -89 15
-184 2 -272 -38 -104 -47 -195 -140 -247 -252 -25 -55 -27 -71 -29 -195 l-1
-135 -43 -67 c-44 -71 -89 -186 -90 -228 0 -36 35 -88 66 -96 55 -14 132 4
228 52 l94 47 44 -16 c186 -68 365 -33 508 100 64 59 97 111 129 201 35 98 26
269 -19 351 -8 17 -2 37 35 114 39 82 45 102 45 158 0 35 -6 71 -13 80 -30 40
-98 49 -168 24z m129 -60 c7 -16 9 -40 3 -67 -9 -50 -59 -158 -72 -158 -5 0
-33 24 -62 53 -29 28 -74 62 -100 75 -26 13 -47 26 -47 30 1 20 176 91 226 92
34 0 43 -4 52 -25z m-448 -101 c0 -4 -45 -51 -100 -106 -55 -54 -100 -106
-100 -113 0 -19 5 -19 35 1 14 9 26 14 26 10 1 -3 2 -12 3 -18 1 -7 -22 -37
-51 -66 -48 -48 -59 -72 -33 -72 5 0 84 74 175 165 103 103 172 165 184 165
48 0 191 -117 191 -156 0 -47 -269 -352 -409 -464 -24 -19 -48 -40 -55 -45 -6
-6 -33 -27 -60 -48 l-49 -37 -42 38 c-103 92 -144 178 -152 317 -11 198 114
364 317 421 49 13 120 18 120 8z m85 -13 c10 -17 -28 -31 -42 -16 -10 11 -10
15 0 18 20 9 35 8 42 -2z m309 -402 c1 -59 -4 -117 -10 -130 -47 -100 -65
-127 -117 -175 -32 -30 -63 -54 -69 -54 -6 0 -1 8 10 19 28 23 28 39 0 43 -30
4 -33 23 -7 47 14 13 19 26 15 37 -6 14 -28 -4 -119 -94 -104 -104 -115 -112
-151 -112 -43 0 -116 19 -116 30 0 4 24 26 53 48 28 22 63 49 77 62 14 12 47
40 74 63 62 52 220 227 283 312 l48 65 14 -28 c10 -18 15 -60 15 -133z m-846
-221 c15 -41 128 -168 150 -168 21 0 8 -12 -48 -42 -149 -81 -230 -80 -230 3
0 31 8 53 53 149 48 102 56 109 75 58z m602 -122 c0 -15 -24 -28 -34 -19 -13
14 -5 33 14 33 11 0 20 -6 20 -14z"/>
<path d="M496 723 c-9 -24 16 -37 32 -16 17 23 15 33 -7 33 -10 0 -22 -8 -25
-17z"/>
<path d="M692 608 c-17 -17 -15 -31 8 -45 16 -11 21 -10 29 5 6 11 6 24 0 35
-12 20 -21 21 -37 5z"/>
<path d="M666 515 c-3 -8 -1 -15 4 -15 6 0 10 7 10 15 0 8 -2 15 -4 15 -2 0
-6 -7 -10 -15z"/>
</g>
</svg>
